<?xml version="1.0" standalone="no"?><!DOCTYPE svg PUBLIC "-//W3C//DTD SVG 1.1//EN" "http://www.w3.org/Graphics/SVG/1.1/DTD/svg11.dtd"><svg t="1619435647679" class="icon" viewBox="0 0 1024 1024" version="1.1" xmlns="http://www.w3.org/2000/svg" p-id="13806" xmlns:xlink="http://www.w3.org/1999/xlink" width="200" height="200"><defs><style type="text/css"></style></defs><path d="M512 960C264.577 960 64 759.424 64 512S264.577 64 512 64s448 200.576 448 448-200.577 448-448 448z m0-768c-145.749 0-268.724 97.446-307.367 230.736l83.369-34.737C331.671 309.286 415.606 256 512 256c24.171 0 47.558 3.354 69.725 9.615l83.308-34.712C619.572 206.101 567.434 192 512 192z m262.606 169.394c-12.513-12.513-32.8-12.513-45.313 0L544 546.687 438.707 441.394c-6.269-6.269-14.49-9.396-22.707-9.383-8.217-0.013-16.438 3.114-22.707 9.383L233.385 601.302c-12.513 12.513-12.513 32.8 0 45.313 12.513 12.513 32.8 12.513 45.313 0L416 509.313l105.302 105.302c6.267 6.267 14.484 9.394 22.698 9.384 8.214 0.01 16.431-3.117 22.698-9.384l207.908-207.908c12.513-12.513 12.513-32.8 0-45.313z m-38.609 274.607C692.329 714.714 608.394 768 512 768c-24.171 0-47.558-3.354-69.725-9.615l-83.308 34.712C404.428 817.899 456.566 832 512 832c145.749 0 268.724-97.446 307.367-230.736l-83.37 34.737z" p-id="13807" fill="#ffffff"></path></svg>